<?xml version="1.0" standalone="no"?>
<!DOCTYPE svg PUBLIC "-//W3C//DTD SVG 20010904//EN"
 "http://www.w3.org/TR/2001/REC-SVG-20010904/DTD/svg10.dtd">
<svg version="1.0" xmlns="http://www.w3.org/2000/svg"
 width="1080.000000pt" height="1080.000000pt" viewBox="0 0 1080.000000 1080.000000"
 preserveAspectRatio="xMidYMid meet">
<metadata>
Created by potrace 1.14, written by Peter Selinger 2001-2017
</metadata>
<g transform="translate(0.000000,1080.000000) scale(0.100000,-0.100000)"
fill="#000000" stroke="none">
<path d="M0 5400 l0 -5400 5400 0 5400 0 0 5400 0 5400 -5400 0 -5400 0 0
-5400z m7390 1029 l0 -1039 -655 0 -655 0 0 125 0 125 530 0 530 0 0 795 0
795 -530 0 -530 0 0 120 0 120 648 2 c356 2 650 2 655 0 4 -2 7 -471 7 -1043z
m-1560 -384 l0 -1425 -125 0 -125 0 0 400 0 400 -576 0 c-317 0 -574 4 -572 8
2 5 53 67 113 140 l110 131 448 0 447 1 0 630 0 631 -216 -253 c-343 -401
-641 -751 -894 -1048 -128 -151 -276 -324 -328 -385 -128 -149 -119 -139 -277
-325 -77 -91 -150 -176 -162 -190 -12 -14 -104 -122 -205 -240 l-184 -215
1983 -3 1983 -2 0 -125 0 -125 -702 0 -703 0 0 -357 0 -358 -137 -3 -138 -3 0
351 0 350 -1277 2 -1278 3 -3 177 -2 178 247 292 c136 161 260 307 274 323 15
17 147 172 293 345 147 173 313 369 370 435 135 159 376 444 401 474 11 14 36
43 56 65 20 23 112 131 205 241 93 110 181 214 195 230 15 17 99 116 187 220
l160 190 -1186 5 -1187 5 2 125 c2 69 3 126 3 128 0 1 630 2 1400 2 l1400 0 0
-1425z m-1860 -351 c0 -3 -6 -11 -12 -18 -7 -7 -58 -67 -113 -134 l-100 -122
-367 0 -368 0 0 140 0 140 480 0 c264 0 480 -3 480 -6z m-615 -2878 c18 -8 38
-23 44 -34 16 -30 13 -84 -4 -109 -17 -25 -82 -46 -123 -41 -25 3 -27 0 -30
-34 -3 -35 -6 -38 -33 -38 l-29 0 0 135 0 135 70 0 c39 0 86 -6 105 -14z m273
-43 l3 -53 60 0 59 0 0 56 c0 54 0 55 28 52 l27 -3 3 -132 3 -133 -31 0 c-30
0 -30 0 -30 55 l0 55 -60 0 -60 0 0 -55 c0 -54 0 -55 -29 -55 l-30 0 -3 131
c-2 72 -1 133 2 135 2 3 16 4 30 2 23 -3 25 -8 28 -55z m559 37 c72 -44 85
-153 25 -213 -27 -27 -40 -32 -97 -35 -74 -5 -103 8 -135 61 -38 61 -17 146
45 187 40 27 119 27 162 0z m416 1 c7 -27 0 -31 -45 -31 l-38 0 0 -110 0 -110
-30 0 -30 0 0 110 0 110 -45 0 c-37 0 -45 3 -45 18 0 10 3 22 7 25 3 4 55 7
114 7 97 0 107 -2 112 -19z m337 4 c47 -24 70 -62 70 -116 0 -100 -49 -144
-155 -137 -76 5 -109 29 -126 90 -26 98 36 178 139 178 24 0 56 -7 72 -15z
m430 0 c33 -17 38 -36 15 -55 -12 -10 -20 -9 -40 4 -37 25 -73 20 -107 -14
-26 -27 -30 -36 -24 -68 7 -45 39 -71 88 -72 36 0 37 1 40 43 3 38 6 42 31 45
27 3 27 3 27 -56 0 -57 -1 -60 -30 -72 -18 -7 -55 -11 -91 -8 -56 4 -65 8 -95
41 -28 30 -34 45 -34 82 0 90 55 145 143 145 26 0 61 -7 77 -15z m375 0 c33
-16 55 -50 55 -86 0 -26 -26 -76 -42 -81 -9 -3 -4 -16 15 -41 15 -19 27 -38
27 -41 0 -3 -15 -6 -32 -6 -27 0 -37 7 -56 35 -17 27 -29 35 -52 35 -28 0 -30
-3 -30 -35 0 -32 -2 -35 -30 -35 l-30 0 0 135 0 135 71 0 c43 0 84 -6 104 -15z
m379 -53 c17 -37 42 -95 58 -130 15 -34 28 -65 28 -67 0 -3 -14 -5 -31 -5 -25
0 -33 6 -42 30 -11 29 -14 30 -72 30 -58 0 -61 -1 -72 -30 -9 -24 -17 -30 -42
-30 -17 0 -31 1 -31 3 0 5 97 222 109 246 8 14 21 21 39 21 24 -1 31 -9 56
-68z m423 36 c34 -34 38 -95 9 -127 -22 -24 -88 -45 -123 -38 -21 4 -23 1 -23
-34 0 -37 -2 -39 -30 -39 l-30 0 0 136 0 136 85 -3 c77 -4 87 -7 112 -31z
m243 -23 l0 -55 59 0 60 0 3 53 c3 48 5 52 31 55 l27 3 0 -135 0 -136 -30 0
c-30 0 -30 1 -30 55 l0 55 -60 0 -60 0 0 -55 c0 -54 0 -55 -30 -55 l-30 0 0
135 0 135 30 0 c30 0 30 -1 30 -55z m412 0 c18 -30 35 -55 38 -55 3 0 20 25
38 55 28 47 38 55 63 55 16 0 29 -2 29 -5 0 -3 -22 -42 -50 -88 -41 -68 -50
-92 -50 -130 0 -46 -1 -47 -30 -47 -29 0 -30 2 -30 44 0 36 -10 61 -50 128
-27 46 -50 86 -50 91 0 4 13 7 29 7 25 0 35 -8 63 -55z"/>
<path d="M3240 2730 l0 -50 38 0 c25 0 45 7 55 18 36 40 9 82 -54 82 l-39 0 0
-50z"/>
<path d="M4048 2750 c-26 -27 -30 -36 -24 -68 11 -69 92 -97 141 -47 34 33 33
81 0 118 -35 37 -77 36 -117 -3z"/>
<path d="M4817 2760 c-33 -26 -39 -47 -27 -89 12 -43 36 -60 82 -61 28 0 41 6
57 26 65 82 -31 187 -112 124z"/>
<path d="M5630 2730 l0 -51 41 3 c53 4 75 31 56 68 -10 20 -21 26 -55 28 l-42
3 0 -51z"/>
<path d="M6045 2714 c-8 -20 -15 -38 -15 -40 0 -2 16 -4 35 -4 19 0 35 2 35 5
0 11 -29 75 -34 75 -3 0 -13 -16 -21 -36z"/>
<path d="M6410 2730 l0 -50 40 0 c31 0 43 5 56 25 15 23 15 27 0 50 -13 20
-25 25 -56 25 l-40 0 0 -50z"/>
</g>
</svg>
